Coordinates
version=1
nRows=14
nColumns=36
inDegrees=yes

Units are S.I. units (second, meters, Newtons, ...)
If the header above contains a line with 'inDegrees', this indicates whether rotational values are in degrees (yes) or radians (no).

endheader
time	pelvis_tilt	pelvis_list	pelvis_rotation	pelvis_tx	pelvis_ty	pelvis_tz	hip_flexion_r	hip_adduction_r	hip_rotation_r	knee_angle_r	knee_angle_r_beta	ankle_angle_r	subtalar_angle_r	mtp_angle_r	hip_flexion_l	hip_adduction_l	hip_rotation_l	knee_angle_l	knee_angle_l_beta	ankle_angle_l	subtalar_angle_l	mtp_angle_l	lumbar_extension	lumbar_bending	lumbar_rotation	arm_flex_r	arm_add_r	arm_rot_r	elbow_flex_r	pro_sup_r	arm_flex_l	arm_add_l	arm_rot_l	elbow_flex_l	pro_sup_l
      0.34000000	      1.71044427	      0.49324847	      2.56739711	      0.28953863	      0.96855569	     -0.22221870	      2.15004469	      3.07795612	     11.43705887	      8.70783494	      0.15198039	     12.61921278	      3.17431414	     -6.29236080	     20.27226375	     -1.09332550	      8.96701006	     38.06544930	      0.66436742	      5.22566409	     -3.66871963	     -6.29236080	     -6.20102413	      0.38896417	      0.82411759	    -15.21953788	     -6.17288889	    -18.07729657	     40.11309373	    111.88039528	    -11.55208693	     -3.88432382	    -21.26578427	     28.21575721	    108.94121151
      0.35000000	      1.85206089	      0.49456109	      2.24393630	      0.30039451	      0.96887640	     -0.22152260	      1.01645051	      3.08670077	     11.51733083	      8.21635680	      0.14340248	     12.96471819	      3.59727220	     -6.31268202	     20.50377693	     -1.27100229	      8.76943085	     34.72846974	      0.60612614	      4.56977960	     -2.94013412	     -6.31268202	     -6.51381494	      0.35662587	      1.20211931	    -14.99216993	     -6.38944377	    -17.75548688	     40.64698688	    111.94280478	    -11.70093203	     -3.91001222	    -21.40142386	     28.27337491	    108.90425920
      0.36000000	      1.96987450	      0.46127860	      1.93872722	      0.31130850	      0.96879477	     -0.22094217	     -0.03358595	      3.12230306	     11.63461411	      7.83439128	      0.13673592	     13.33033286	      3.94542863	     -6.32963160	     20.70902533	     -1.46106105	      8.62776906	     31.41208656	      0.54824434	      3.98665710	     -1.92717223	     -6.32963160	     -6.78455711	      0.36657644	      1.54495148	    -14.76723077	     -6.62482005	    -17.40720895	     41.15905153	    112.00426140	    -11.84585272	     -3.92459874	    -21.52049285	     28.30830985	    108.86899387
      0.37000000	      2.12855427	      0.34914730	      1.65450933	      0.32227722	      0.96842343	     -0.22048026	     -1.10410542	      3.23926620	     11.75633086	      7.51482934	      0.13115851	     13.74470963	      4.26457250	     -6.34650550	     20.84239095	     -1.71107451	      8.57065285	     28.17224539	      0.49169844	      3.58762718	     -0.77042269	     -6.34650550	     -7.08520237	      0.47071157	      1.84382327	    -14.51076748	     -6.89769809	    -17.01491964	     41.64774213	    112.06277275	    -11.97965672	     -3.91063121	    -21.63543866	     28.32476814	    108.83098296
      0.38000000	      2.34535041	      0.19741535	      1.40137743	      0.33333382	      0.96780478	     -0.22015117	     -2.23426807	      3.38666837	     11.85586449	      7.22243117	      0.12605520	     14.21597538	      4.56442156	     -6.36634582	     20.89022019	     -1.98971157	      8.53803960	     25.03419706	      0.43692916	      3.38412306	      0.53068422	     -6.36634582	     -7.45458205	      0.62679297	      2.07554111	    -14.23520535	     -7.23026937	    -16.55995095	     42.09371036	    112.11291802	    -12.10919328	     -3.91617807	    -21.76949414	     28.32081125	    108.78334596
      0.39000000	      2.51858453	      0.00171715	      1.20353062	      0.34444143	      0.96685238	     -0.22002831	     -3.28491913	      3.57945826	     12.00193579	      7.02549636	      0.12261804	     14.69135727	      4.76470272	     -6.38405346	     20.97036534	     -2.26126108	      8.67632675	     22.01112161	      0.38416654	      3.31755114	      1.84567611	     -6.38405346	     -7.76013616	      0.84778502	      2.23800886	    -13.93037218	     -7.52169627	    -16.14272013	     42.47399647	    112.14978222	    -12.22043176	     -3.85269677	    -21.87731431	     28.28660092	    108.73934270
      0.40000000	      2.72520907	     -0.25480470	      1.01533400	      0.35564021	      0.96568231	     -0.21995949	     -4.37579363	      3.83636114	     12.12714290	      6.82205263	      0.11906728	     15.17086169	      4.92580163	     -6.40288595	     21.00153711	     -2.60089500	      8.83215991	     19.14985058	      0.33422794	      3.40665022	      3.12041998	     -6.40288595	     -8.09373574	      1.13792698	      2.35337243	    -13.56066795	     -7.83906700	    -15.73083426	     42.79996385	    112.17408929	    -12.34411533	     -3.82632562	    -21.99140672	     28.21658360	    108.68907271
      0.41000000	      2.97114040	     -0.52842398	      0.87722521	      0.36691711	      0.96436418	     -0.22004576	     -5.52277222	      4.11169705	     12.30050670	      6.62953867	      0.11570728	     15.62921147	      5.06263903	     -6.42671340	     20.97705453	     -2.94126603	      8.99753281	     16.43233534	      0.28679836	      3.57401356	      4.39963836	     -6.42671340	     -8.48007244	      1.44418066	      2.38652542	    -13.15997967	     -8.15171895	    -15.29389593	     43.04979744	    112.18039981	    -12.43917797	     -3.76527882	    -22.10647312	     28.13029827	    108.62995728
      0.42000000	      3.10795608	     -0.83355985	      0.76057433	      0.37819961	      0.96269793	     -0.22025182	     -6.51741932	      4.42952949	     12.51121045	      6.52514778	      0.11388531	     16.10707430	      5.06551696	     -6.44052233	     21.06019437	     -3.28671475	      9.32669743	     13.87536289	      0.24217077	      3.68155959	      5.45811441	     -6.44052233	     -8.74187535	      1.79712508	      2.42791795	    -12.76455904	     -8.40391593	    -15.06621498	     43.26802490	    112.18481691	    -12.50757411	     -3.71181654	    -22.17315204	     28.01460113	    108.59115378
      0.43000000	      3.34730728	     -1.10896803	      0.66260176	      0.38962264	      0.96103353	     -0.22051559	     -7.67853025	      4.71260088	     12.72430418	      6.32660042	      0.11042001	     16.57063951	      5.05793472	     -6.45446551	     21.00239338	     -3.60946282	      9.50418599	     11.49147295	      0.20056404	      3.76894408	      6.48108957	     -6.45446551	     -9.12557658	      2.11125109	      2.43214609	    -12.35724589	     -8.62756849	    -14.84496714	     43.45110217	    112.18486825	    -12.53752271	     -3.66900373	    -22.23247471	     27.86167368	    108.54996925
      0.44000000	      3.64485195	     -1.33774368	      0.59238353	      0.40118205	      0.95935452	     -0.22090005	     -8.96585742	      4.93969310	     12.96372528	      6.04556164	      0.10551496	     17.01596621	      5.00440604	     -6.47163694	     20.86977041	     -3.87125914	      9.55724214	      9.30934487	      0.16247872	      3.80414411	      7.47784538	     -6.47163694	     -9.57272567	      2.37246324	      2.41784887	    -11.94628397	     -8.82525273	    -14.63410142	     43.58918281	    112.17188156	    -12.53041822	     -3.64046677	    -22.29232915	     27.70152348	    108.50437326
      0.45000000	      3.87437095	     -1.56735137	      0.52330593	      0.41279525	      0.95747918	     -0.22134404	    -10.17462378	      5.16723927	     13.23983225	      5.79427212	      0.10112913	     17.44981149	      4.90751829	     -6.48810556	     20.83104277	     -4.11768195	      9.55726922	      7.40413591	      0.12922655	      3.80181558	      8.31611186	     -6.48810556	     -9.94452412	      2.63047357	      2.39037447	    -11.54541263	     -8.97076403	    -14.52919856	     43.71285137	    112.14798635	    -12.52225924	     -3.61990898	    -22.34356711	     27.55624355	    108.46547670
      0.46000000	      4.04254284	     -1.78357513	      0.45511284	      0.42446961	      0.95544103	     -0.22183762	    -11.30121142	      5.37787752	     13.53253824	      5.59047625	      0.09757222	     17.90780703	      4.82304310	     -6.49996392	     20.87491989	     -4.33077556	      9.54217260	      5.80203319	      0.10126458	      3.77153631	      8.99474593	     -6.49996392	    -10.24927981	      2.86075013	      2.34607631	    -11.15837382	     -9.05517104	    -14.52785276	     43.84264632	    112.12474626	    -12.51705574	     -3.61487300	    -22.38438805	     27.41566126	    108.43691218
      0.47000000	      4.30129045	     -1.89433320	      0.40785022	      0.43637296	      0.95351207	     -0.22244499	    -12.62925554	      5.45473503	     13.79228234	      5.21032840	      0.09093739	     18.29244324	      4.67736764	     -6.52187374	     20.83908091	     -4.40015801	      9.29880441	      4.53604406	      0.07916890	      3.71258919	      9.62552921	     -6.52187374	    -10.63824113	      2.97381959	      2.32469028	    -10.82958861	     -9.08663795	    -14.59667728	     43.93190417	    112.07492035	    -12.46164226	     -3.63798675	    -22.44518947	     27.29920482	    108.40234279
